<svg xmlns="http://www.w3.org/2000/svg" viewBox="0 0 800 600">
  <defs>
    <linearGradient id="gc1" x1="0%" y1="0%" x2="100%" y2="100%"><stop offset="0%" style="stop-color:#8B5CF6"/><stop offset="100%" style="stop-color:#7C3AED"/></linearGradient>
  </defs>
  <rect width="800" height="600" fill="#0F172A" rx="20"/>
  <text x="400" y="70" text-anchor="middle" fill="#F1F5F9" font-size="32" font-weight="bold" font-family="sans-serif">Casino &amp; Slots</text>
  <text x="400" y="105" text-anchor="middle" fill="#94A3B8" font-size="16" font-family="sans-serif">50+ Premium Games Available</text>
  <rect x="150" y="140" width="500" height="300" rx="20" fill="#1E293B" stroke="#F59E0B" stroke-width="3"/>
  <rect x="190" y="200" width="120" height="160" rx="10" fill="#0F172A"/>
  <text x="250" y="300" text-anchor="middle" fill="white" font-size="60"><R</text>
  <rect x="340" y="200" width="120" height="160" rx="10" fill="#0F172A"/>
  <text x="400" y="300" text-anchor="middle" fill="white" font-size="60">=</text>
  <rect x="490" y="200" width="120" height="160" rx="10" fill="#0F172A"/>
  <text x="550" y="300" text-anchor="middle" fill="white" font-size="60">7ă</text>
  <text x="400" y="165" text-anchor="middle" fill="#FBBF24" font-size="22" font-weight="bold" font-family="sans-serif"><° MEGA SLOTS</text>
  <text x="400" y="415" text-anchor="middle" fill="#22C55E" font-size="18" font-weight="bold" font-family="sans-serif">WIN UP TO 1000x!</text>
  <rect x="150" y="470" width="150" height="50" rx="10" fill="#1E293B"/>
  <text x="225" y="502" text-anchor="middle" fill="#F59E0B" font-size="14" font-weight="bold" font-family="sans-serif"><Ď Card Games</text>
  <rect x="325" y="470" width="150" height="50" rx="10" fill="#1E293B"/>
  <text x="400" y="502" text-anchor="middle" fill="#8B5CF6" font-size="14" font-weight="bold" font-family="sans-serif"><˛ Dice Games</text>
  <rect x="500" y="470" width="150" height="50" rx="10" fill="#1E293B"/>
  <text x="575" y="502" text-anchor="middle" fill="#22C55E" font-size="14" font-weight="bold" font-family="sans-serif"><Ł Fishing</text>
  <text x="400" y="570" text-anchor="middle" fill="#94A3B8" font-size="14" font-family="sans-serif">Fair RNG Certified " Beautiful Graphics " Smooth Gameplay</text>
</svg>
