<svg xmlns="http://www.w3.org/2000/svg" viewBox="0 0 800 600">
  <defs>
    <linearGradient id="g1" x1="0%" y1="0%" x2="100%" y2="100%">
      <stop offset="0%" style="stop-color:#8B5CF6"/>
      <stop offset="100%" style="stop-color:#7C3AED"/>
    </linearGradient>
    <linearGradient id="g2" x1="0%" y1="0%" x2="100%" y2="100%">
      <stop offset="0%" style="stop-color:#F59E0B"/>
      <stop offset="100%" style="stop-color:#FBBF24"/>
    </linearGradient>
  </defs>
  <rect width="800" height="600" fill="#0F172A" rx="20"/>
  <circle cx="400" cy="250" r="150" fill="url(#g1)" opacity="0.3"/>
  <circle cx="350" cy="300" r="100" fill="url(#g2)" opacity="0.2"/>
  <rect x="300" y="150" width="200" height="340" rx="25" fill="#1E293B" stroke="url(#g1)" stroke-width="3"/>
  <rect x="315" y="190" width="170" height="260" rx="5" fill="#0F172A"/>
  <circle cx="400" cy="470" r="12" fill="#8B5CF6"/>
  <rect x="370" y="165" width="60" height="8" rx="4" fill="#334155"/>
  <text x="400" y="280" text-anchor="middle" fill="#F59E0B" font-size="48" font-weight="bold" font-family="sans-serif">92</text>
  <text x="400" y="330" text-anchor="middle" fill="#FBBF24" font-size="32" font-weight="bold" font-family="sans-serif">JEETO</text>
  <text x="400" y="370" text-anchor="middle" fill="#94A3B8" font-size="14" font-family="sans-serif">Play &amp; Win Real Money</text>
  <circle cx="150" cy="150" r="40" fill="#8B5CF6" opacity="0.4"/>
  <circle cx="650" cy="120" r="30" fill="#F59E0B" opacity="0.4"/>
  <circle cx="680" cy="450" r="50" fill="#7C3AED" opacity="0.3"/>
  <circle cx="120" cy="480" r="35" fill="#FBBF24" opacity="0.3"/>
  <text x="150" y="158" text-anchor="middle" fill="white" font-size="28"><®</text>
  <text x="650" y="128" text-anchor="middle" fill="white" font-size="22">¡</text>
  <text x="680" y="458" text-anchor="middle" fill="white" font-size="32"><Æ</text>
  <text x="120" y="488" text-anchor="middle" fill="white" font-size="24">=°</text>
  <rect x="340" y="400" width="120" height="35" rx="17" fill="url(#g2)"/>
  <text x="400" y="423" text-anchor="middle" fill="#0F172A" font-size="14" font-weight="bold" font-family="sans-serif">PLAY NOW</text>
</svg>
