<svg xmlns="http://www.w3.org/2000/svg" viewBox="0 0 800 600">
  <defs>
    <linearGradient id="gr1" x1="0%" y1="0%" x2="100%" y2="100%"><stop offset="0%" style="stop-color:#8B5CF6"/><stop offset="100%" style="stop-color:#7C3AED"/></linearGradient>
    <linearGradient id="gr2" x1="0%" y1="0%" x2="100%" y2="100%"><stop offset="0%" style="stop-color:#F59E0B"/><stop offset="100%" style="stop-color:#FBBF24"/></linearGradient>
  </defs>
  <rect width="800" height="600" fill="#0F172A" rx="20"/>
  <text x="400" y="70" text-anchor="middle" fill="#F1F5F9" font-size="32" font-weight="bold" font-family="sans-serif">Referral Program</text>
  <text x="400" y="105" text-anchor="middle" fill="#94A3B8" font-size="16" font-family="sans-serif">Earn PKR 300 Per Friend You Invite</text>
  <circle cx="400" cy="260" r="60" fill="url(#gr1)"/><text x="400" y="270" text-anchor="middle" fill="white" font-size="36">=d</text>
  <text x="400" y="350" text-anchor="middle" fill="#F59E0B" font-size="16" font-weight="bold" font-family="sans-serif">YOU</text>
  <circle cx="180" cy="400" r="45" fill="#1E293B" stroke="#F59E0B" stroke-width="2"/><text x="180" y="408" text-anchor="middle" fill="white" font-size="26">=e</text>
  <circle cx="620" cy="400" r="45" fill="#1E293B" stroke="#F59E0B" stroke-width="2"/><text x="620" y="408" text-anchor="middle" fill="white" font-size="26">=e</text>
  <circle cx="300" cy="480" r="35" fill="#1E293B" stroke="#8B5CF6" stroke-width="2"/><text x="300" y="488" text-anchor="middle" fill="white" font-size="22">=d</text>
  <circle cx="500" cy="480" r="35" fill="#1E293B" stroke="#8B5CF6" stroke-width="2"/><text x="500" y="488" text-anchor="middle" fill="white" font-size="22">=d</text>
  <line x1="360" y1="300" x2="210" y2="370" stroke="#F59E0B" stroke-width="2" opacity="0.5"/>
  <line x1="440" y1="300" x2="590" y2="370" stroke="#F59E0B" stroke-width="2" opacity="0.5"/>
  <line x1="200" y1="440" x2="280" y2="460" stroke="#8B5CF6" stroke-width="2" opacity="0.5"/>
  <line x1="600" y1="440" x2="520" y2="460" stroke="#8B5CF6" stroke-width="2" opacity="0.5"/>
  <rect x="120" y="140" width="180" height="60" rx="10" fill="url(#gr2)" opacity="0.15"/>
  <text x="210" y="178" text-anchor="middle" fill="#FBBF24" font-size="18" font-weight="bold" font-family="sans-serif">+PKR 300</text>
  <rect x="500" y="140" width="180" height="60" rx="10" fill="url(#gr2)" opacity="0.15"/>
  <text x="590" y="178" text-anchor="middle" fill="#FBBF24" font-size="18" font-weight="bold" font-family="sans-serif">+PKR 300</text>
  <text x="400" y="565" text-anchor="middle" fill="#94A3B8" font-size="14" font-family="sans-serif">No Limit on Referrals " Earn Passive Income Daily</text>
</svg>
